<svg width="28" height="25" viewBox="0 0 28 25" fill="none" xmlns="http://www.w3.org/2000/svg">
<path d="M19.4155 4.05841L23.7654 8.46357C23.9487 8.64915 23.9487 8.95194 23.7654 9.13753L13.233 19.8037L8.75772 20.3067C8.15972 20.3751 7.65336 19.8623 7.72087 19.2567L8.21759 14.7246L18.75 4.05841C18.9333 3.87283 19.2323 3.87283 19.4155 4.05841ZM27.228 2.94003L24.8746 0.556749C24.1416 -0.185583 22.9504 -0.185583 22.2126 0.556749L20.5054 2.2856C20.3221 2.47119 20.3221 2.77398 20.5054 2.95956L24.8553 7.36472C25.0386 7.5503 25.3376 7.5503 25.5208 7.36472L27.228 5.63587C27.961 4.88865 27.961 3.68236 27.228 2.94003ZM18.5185 16.9027V21.8744H3.08642V6.24634H14.1686C14.3229 6.24634 14.4676 6.18285 14.5785 6.07541L16.5075 4.1219C16.874 3.75073 16.6136 3.12073 16.0976 3.12073H2.31481C1.03684 3.12073 0 4.17074 0 5.46493V22.6558C0 23.95 1.03684 25 2.31481 25H19.2901C20.5681 25 21.6049 23.95 21.6049 22.6558V14.9492C21.6049 14.4266 20.9828 14.1678 20.6163 14.5341L18.6873 16.4876C18.5812 16.5999 18.5185 16.7464 18.5185 16.9027Z" fill="#49A2C9"/>
</svg>
