<svg width="23" height="25" viewBox="0 0 23 25" fill="none" xmlns="http://www.w3.org/2000/svg">
<path d="M21.4286 1.56251H15.4762L15.0099 0.649422C14.9111 0.454214 14.759 0.29001 14.5706 0.175281C14.3822 0.0605526 14.165 -0.00014785 13.9435 8.56089e-06H8.27381C8.05277 -0.000827891 7.83596 0.0596462 7.64822 0.174502C7.46048 0.289359 7.3094 0.453951 7.2123 0.649422L6.74603 1.56251H0.793651C0.583161 1.56251 0.381293 1.64482 0.232455 1.79133C0.0836165 1.93784 0 2.13656 0 2.34376L0 3.90626C0 4.11346 0.0836165 4.31217 0.232455 4.45868C0.381293 4.6052 0.583161 4.68751 0.793651 4.68751H21.4286C21.6391 4.68751 21.8409 4.6052 21.9898 4.45868C22.1386 4.31217 22.2222 4.11346 22.2222 3.90626V2.34376C22.2222 2.13656 22.1386 1.93784 21.9898 1.79133C21.8409 1.64482 21.6391 1.56251 21.4286 1.56251ZM2.63889 22.8027C2.67674 23.3978 2.94353 23.9562 3.38495 24.3644C3.82636 24.7726 4.40923 24.9999 5.01488 25H17.2073C17.813 24.9999 18.3959 24.7726 18.8373 24.3644C19.2787 23.9562 19.5455 23.3978 19.5833 22.8027L20.6349 6.25001H1.5873L2.63889 22.8027Z" fill="#FF0000"/>
</svg>
